<svg width="36" height="38" fill="none" xmlns="http://www.w3.org/2000/svg"><g clip-path="url(#clip0)"><g filter="url(#filter0_d)"><path d="M15.404 21.001h-4.782a7.58 7.58 0 01-.972-.073l-2.109 2.816a.644.644 0 01-.842.152l.085.054c-.265-.169-.467-.575-.435-.898l.297-2.999C5.906 19.71 5 19.155 5 18.492c0-.663.906-1.215 1.646-1.554l-.297-2.99c-.032-.323.17-.73.435-.899l-.085.054a.644.644 0 01.842.153l2.11 2.818c.354-.048.69-.076.971-.076h4.732l-.521-10.471c-.016-.321.142-.784.356-1.037l.038-.045c.213-.25.65-.45.977-.445l.508.008c.327.006.71.247.855.535l5.736 11.455h4.29c.812 0 2.065.296 2.767.699 0 0 1.64.62 1.64 1.803 0 1.183-1.64 1.803-1.64 1.803-.716.386-1.962.698-2.768.698h-3.788l-6.237 12.456c-.145.288-.528.53-.855.535l-.508.008c-.328.005-.764-.194-.977-.446l-.038-.044c-.214-.253-.372-.716-.356-1.037l.57-11.472z" fill="#fff"/></g><mask id="a" maskUnits="userSpaceOnUse" x="5" y="4" width="27" height="30"><path d="M15.404 21.001h-4.782a7.58 7.58 0 01-.972-.073l-2.109 2.816a.644.644 0 01-.842.152l.085.054c-.265-.169-.467-.575-.435-.898l.297-2.999C5.906 19.71 5 19.155 5 18.492c0-.663.906-1.215 1.646-1.554l-.297-2.99c-.032-.323.17-.73.435-.899l-.085.054a.644.644 0 01.842.153l2.11 2.818c.354-.048.69-.076.971-.076h4.732l-.521-10.471c-.016-.321.142-.784.356-1.037l.038-.045c.213-.25.65-.45.977-.445l.508.008c.327.006.71.247.855.535l5.736 11.455h4.29c.812 0 2.065.296 2.767.699 0 0 1.64.62 1.64 1.803 0 1.183-1.64 1.803-1.64 1.803-.716.386-1.962.698-2.768.698h-3.788l-6.237 12.456c-.145.288-.528.53-.855.535l-.508.008c-.328.005-.764-.194-.977-.446l-.038-.044c-.214-.253-.372-.716-.356-1.037l.57-11.472z" fill="#fff"/></mask><g mask="url(#a)"><path d="M15.404 21.001h-4.782a7.58 7.58 0 01-.972-.073l-2.109 2.816a.644.644 0 01-.842.152l.085.054c-.265-.169-.467-.575-.435-.898l.297-2.999C5.906 19.71 5 19.155 5 18.492c0-.663.906-1.215 1.646-1.554l-.297-2.99c-.032-.323.17-.73.435-.899l-.085.054a.644.644 0 01.842.153l2.11 2.818c.354-.048.69-.076.971-.076h4.732l-.521-10.471c-.016-.321.142-.784.356-1.037l.038-.045c.213-.25.65-.45.977-.445l.508.008c.327.006.71.247.855.535l5.736 11.455h4.29c.812 0 2.065.296 2.767.699 0 0 1.64.62 1.64 1.803 0 1.183-1.64 1.803-1.64 1.803-.716.386-1.962.698-2.768.698h-3.788l-6.237 12.456c-.145.288-.528.53-.855.535l-.508.008c-.328.005-.764-.194-.977-.446l-.038-.044c-.214-.253-.372-.716-.356-1.037l.57-11.472z" fill="#fff"/><path opacity=".9" fill-rule="evenodd" clip-rule="evenodd" d="M23.224 14.997v1h-10.64v-1h10.64z" fill="#EBECF2"/><path fill-rule="evenodd" clip-rule="evenodd" d="M17.643 34.01c.32 0 .695-.249.83-.543l5.75-12.466h-9.22l-.57 11.472c-.016.321.142.784.356 1.037l.038.044c.213.252.642.456.966.456h1.85z" fill="#DEE1E3"/><path opacity=".4" fill-rule="evenodd" clip-rule="evenodd" d="M6.712 20.246c.468.169.817.262.817.262.771.267 2.027.467 2.895.49l-2.599 2.778a.828.828 0 01-.93.167l-.08-.04a.905.905 0 01-.45-.85l.347-2.807z" fill="#DEE1E3"/><path fill-rule="evenodd" clip-rule="evenodd" d="M14.873 23.632l.15-2.63h9.642l-.67 1.163-9.122 1.467z" fill="#C5C6CC"/><path fill-rule="evenodd" clip-rule="evenodd" d="M31.487 21.001H4.992s.026-1.634.026-2.954v-.048c.865.685 2.722 1.824 5.07 1.824H28.43c2.038 0 3.072-1.083 3.562-1.518-.176 1.217-.505 2.696-.505 2.696z" fill="#DEE1E3"/></g></g><defs><clipPath id="clip0"><path fill="#fff" transform="rotate(90 18 18)" d="M0 0h38v36H0z"/></clipPath><filter id="filter0_d" x="2" y="2" width="35" height="38" filterUnits="userSpaceOnUse" color-interpolation-filters="sRGB"><feFlood flood-opacity="0" result="BackgroundImageFix"/><feColorMatrix in="SourceAlpha" values="0 0 0 0 0 0 0 0 0 0 0 0 0 0 0 0 0 0 127 0"/><feOffset dx="1" dy="2"/><feGaussianBlur stdDeviation="2"/><feColorMatrix values="0 0 0 0 0 0 0 0 0 0 0 0 0 0 0 0 0 0 0.2 0"/><feBlend in2="BackgroundImageFix" result="effect1_dropShadow"/><feBlend in="SourceGraphic" in2="effect1_dropShadow" result="shape"/></filter></defs></svg>